<?xml version="1.0" encoding="UTF-8"?>
<svg xmlns="http://www.w3.org/2000/svg" width="960" height="600" viewBox="0 0 960 600" role="img" aria-labelledby="title desc"><title id="title">Terra travel tours — illustrative sample</title><desc id="desc">An original illustrative website preview. Replace this sample with your actual site capture.</desc><defs><linearGradient id="purple" x1="0" y1="0" x2="1" y2="1"><stop stop-color="#ad7aff"/><stop offset="1" stop-color="#5265ff"/></linearGradient><linearGradient id="sky" x1="0" y1="0" x2="0" y2="1"><stop stop-color="#c6dedc"/><stop offset="1" stop-color="#f0e9d7"/></linearGradient><linearGradient id="dark" x1="0" y1="0" x2="1" y2="1"><stop stop-color="#202343"/><stop offset="1" stop-color="#12131d"/></linearGradient><linearGradient id="lime" x1="0" y1="0" x2="1" y2="1"><stop stop-color="#d9f974"/><stop offset="1" stop-color="#67d4a4"/></linearGradient></defs><rect x="0" y="0" width="960" height="600" rx="0" fill="#edf0df" /><g font-family="Arial, Helvetica, sans-serif"><rect x="0" y="0" width="960" height="546" rx="0" fill="url(#sky)" /><path d="M0 333 L177 151 L350 335 L534 118 L704 316 L801 183 L960 355 L960 546 L0 546 Z" fill="#819995" /><path d="M0 391 L123 284 L294 410 L477 287 L618 376 L805 259 L960 398 L960 546 L0 546 Z" fill="#506d65" /><path d="M0 470 Q253 342 446 460 T960 435 L960 546 L0 546 Z" fill="#2d5149" /><path d="M463 546 Q548 467 663 452 Q720 437 793 472 L816 546 Z" fill="#a6b9a5" /><path d="M587 546 Q640 488 695 474 Q735 464 759 479 L727 546 Z" fill="#d5dec3" /><rect x="0" y="0" width="960" height="546" rx="0" fill="#112d25" opacity=".18"/><text x="48" y="56" fill="#f8f8e6" font-size="23" font-weight="800" >terra /</text><text x="912" y="54" fill="#f8f8e6" font-size="13" font-weight="500" text-anchor="end">Destinations     Our way     Plan a trip ↗</text><text x="48" y="160" fill="#eff5df" font-size="12" font-weight="700" >GO A LITTLE FURTHER</text><text x="48" y="253" fill="#fcf7e6" font-size="71" font-weight="700" >The world is</text><text x="48" y="336" fill="#fcf7e6" font-size="71" font-weight="700" >still full of wonder.</text><text x="52" y="382" fill="#e6eddb" font-size="18" font-weight="400" >Thoughtful journeys for your curious side.</text><rect x="48" y="414" width="191" height="38" rx="19" fill="#edf0cf" /><text x="143.5" y="439" fill="#274238" font-size="14" font-weight="600" text-anchor="middle">Find your next adventure</text><text x="48" y="576" fill="#4f6d58" font-size="11" font-weight="700" >LESS ITINERARY. MORE DISCOVERY.</text><text x="775" y="576" fill="#4f6d58" font-size="11" font-weight="700" text-anchor="end">EXPLORE WITH TERRA ↗</text><rect x="792" y="558" width="142" height="26" rx="13" fill="#10121d" opacity=".9"/><text x="863" y="575" fill="#fff" font-size="12" font-weight="600" text-anchor="middle">Sample design</text></g></svg>
